<?xml version="1.0" encoding="UTF-8"?><svg id="a" xmlns="http://www.w3.org/2000/svg" xmlns:xlink="http://www.w3.org/1999/xlink" viewBox="0 0 1944.37 1067.5"><defs><clipPath id="b"><rect y="0" width="1944.37" height="1067.5" fill="none"/></clipPath></defs><g clip-path="url(#b)"><path d="M1024.77,359.75h-375.46v54.6h125.75v293.92h120.92v-293.92h128.79v-54.6Z" fill="#263a80"/><path d="M582.5,358.98h-117.87v349.8h117.87v-349.8Z" fill="#263a80"/><path d="M1091.07,709.29h325.67v-57.92h-205.01v-96.44h193.83v-57.92h-193.83v-80.62h205.51v-57.92h-325.67l-.51,350.81Z" fill="#263a80"/><path d="M1616.42,509.26c6.61-21.43,26.93-44.39,50.3-60.98,74.94-50.26,200.18-46.18,277.66,0v-79.86c-55.63-17.35-113.04-22.45-179.85-18.88-111.27,10.72-259.37,55.88-278.93,163.03l-1.27,13.78c-5.08,50.52,24.13,90.83,63.76,122.21,106.44,74.5,267.75,90.06,396.29,50.26v-79.09c-35.06,17.6-70.37,31.64-111.01,35.46-82.05,3.32-173-7.14-215.68-91.6-9.4-33.42-1.27-54.34-1.27-54.34Z" fill="#263a80"/><path d="M398.58,600.85c-3.56-40.06-48.27-66.34-82.31-76.54l-13.97-5.36,16-8.93c16.51-15.05,29.72-34.44,29.98-57.92-1.78-27.3-14.73-52.81-40.39-66.85-88.91-41.08-208.56-29.09-307.89-25.77v351.33c122.19-3.06,244.89,16.07,351.84-28.83,29.72-16.33,52.33-45.41,46.49-81.13M229.9,448.02c-.51,13.52,2.03,28.32-9.4,38.01-23.37,20.92-60.46,17.1-94.25,16.84v-85.98c35.31-2.81,87.13-6.63,103.9,31.13M265.72,632.49c-37.09,30.87-90.69,21.43-139.97,22.96l.76-94.4c40.39-2.3,99.33-8.68,136.16,17.1l11.18,14.8c3.56,13.52.76,28.83-7.87,39.55" fill="#263a80"/><path d="M527.12,0h-177.06v177.83h177.06V0Z" fill="#ce202f"/><path d="M1594.06,0h-177.06v177.83h177.06V0Z" fill="#ce202f"/><path d="M527.12,889.67h-177.06v177.83h177.06v-177.83Z" fill="#ce202f"/><path d="M1594.06,889.67h-177.06v177.83h177.06v-177.83Z" fill="#ce202f"/></g></svg>